<svg xmlns="http://www.w3.org/2000/svg" viewBox="0 0 128 128">
  <defs>
    <radialGradient id="bg" cx="35%" cy="30%" r="70%">
      <stop offset="0%" stop-color="#21469a"/>
      <stop offset="70%" stop-color="#0c1c45"/>
      <stop offset="100%" stop-color="#07112b"/>
    </radialGradient>
    <linearGradient id="gold" x1="0" y1="0" x2="1" y2="1">
      <stop offset="0%" stop-color="#fff4b9"/>
      <stop offset="45%" stop-color="#ffd35b"/>
      <stop offset="100%" stop-color="#ff9f0a"/>
    </linearGradient>
  </defs>
  <circle cx="64" cy="64" r="58" fill="url(#bg)" stroke="url(#gold)" stroke-width="6"/>
  <path d="M64 30c-12 0-22 10-22 22 0 9 5 15 10 20 2 2 3 4 3 8h18c0-4 1-6 3-8 5-5 10-11 10-20 0-12-10-22-22-22z" fill="url(#gold)"/>
  <rect x="55" y="82" width="18" height="7" rx="3" fill="#fff3c4"/>
  <rect x="56" y="92" width="16" height="6" rx="3" fill="#ffd35b"/>
  <path d="M64 20v-8M97 33l6-6M31 33l-6-6M108 64h8M12 64h8" stroke="#fff4b9" stroke-width="4" stroke-linecap="round"/>
</svg>